<?xml version="1.0" encoding="UTF-8"?>
<!DOCTYPE svg PUBLIC "-//W3C//DTD SVG 1.1//EN" "http://www.w3.org/Graphics/SVG/1.1/DTD/svg11.dtd">
<!-- Creator: CorelDRAW -->
<svg xmlns="http://www.w3.org/2000/svg" xml:space="preserve" width="9.8259mm" height="13.8077mm" version="1.1" style="shape-rendering:geometricPrecision; text-rendering:geometricPrecision; image-rendering:optimizeQuality; fill-rule:evenodd; clip-rule:evenodd"
viewBox="0 0 463.32 651.08"
 xmlns:xlink="http://www.w3.org/1999/xlink"
 xmlns:xodm="http://www.corel.com/coreldraw/odm/2003">
 <defs>
  <style type="text/css">
   <![CDATA[
    .fil0 {fill:#2E3844}
   ]]>
  </style>
 </defs>
 <g id="Layer_x0020_1">
  <metadata id="CorelCorpID_0Corel-Layer"/>
  <g id="_2149044697984">
   <path class="fil0" d="M416.68 571.4c87.93,-101.02 59.26,-264.37 -152.69,-291.64 -103.94,-13.38 -153.65,-2.12 -174.24,-92.54l-89.11 0.09c-6.56,68.99 38.77,119.35 77.18,143.23 103.82,64.55 326.93,12.31 288.22,146.5 -19.86,68.84 -99.41,73.33 -137.82,82.12l0.99 90.97c78.57,8.49 154.92,-41.32 187.48,-78.72z"/>
   <path class="fil0" d="M228.12 88.59c72.37,13.77 102.89,21.83 126.42,84.51l85.99 -5.23c11.85,-72.69 -97.09,-177.01 -211.62,-167.23l-0.79 87.95z"/>
  </g>
 </g>
</svg>
