<svg xmlns="http://www.w3.org/2000/svg" viewBox="0 0 600 840" preserveAspectRatio="xMidYMid slice">
  <defs>
    <linearGradient id="gm" x1="0" y1="0" x2="0" y2="1">
      <stop offset="0%" stop-color="#0a1410"></stop>
      <stop offset="55%" stop-color="#0d1f18"></stop>
      <stop offset="100%" stop-color="#061008"></stop>
    </linearGradient>
    <radialGradient id="glow" cx="50%" cy="42%" r="60%">
      <stop offset="0%" stop-color="#22c55e" stop-opacity="0.28"></stop>
      <stop offset="60%" stop-color="#22c55e" stop-opacity="0.05"></stop>
      <stop offset="100%" stop-color="#22c55e" stop-opacity="0"></stop>
    </radialGradient>
    <pattern id="grid" width="30" height="30" patternUnits="userSpaceOnUse">
      <path d="M30 0H0V30" fill="none" stroke="#22c55e" stroke-opacity="0.08" stroke-width="0.6"></path>
    </pattern>
  </defs>

  
  <rect width="600" height="840" fill="url(#gm)"></rect>
  <rect width="600" height="840" fill="url(#grid)"></rect>
  <rect width="600" height="840" fill="url(#glow)"></rect>

  
  <g font-family="ui-monospace, &#39;SF Mono&#39;, Menlo, monospace" font-size="11" letter-spacing="3" fill="#22c55e">
    <text x="48" y="68" opacity="0.9">AI NOW · RESEARCH</text>
    <text x="552" y="68" text-anchor="end" opacity="0.7">N°01 / 2026</text>
  </g>
  <line x1="48" y1="84" x2="552" y2="84" stroke="#22c55e" stroke-opacity="0.35"></line>

  
  <g transform="translate(300 340)" stroke="#22c55e" fill="none">
    <circle r="160" stroke-opacity="0.12"></circle>
    <circle r="115" stroke-opacity="0.18"></circle>
    <circle r="70" stroke-opacity="0.28"></circle>
    <circle r="6" fill="#22c55e" stroke="none"></circle>
    
    <g stroke-opacity="0.35" stroke-width="1">
      <line x1="0" y1="-160" x2="0" y2="-70"></line>
      <line x1="113" y1="-113" x2="49" y2="-49"></line>
      <line x1="160" y1="0" x2="70" y2="0"></line>
      <line x1="113" y1="113" x2="49" y2="49"></line>
      <line x1="0" y1="160" x2="0" y2="70"></line>
      <line x1="-113" y1="113" x2="-49" y2="49"></line>
      <line x1="-160" y1="0" x2="-70" y2="0"></line>
      <line x1="-113" y1="-113" x2="-49" y2="-49"></line>
    </g>
    
    <g fill="#22c55e" stroke="none">
      <circle cx="0" cy="-160" r="4"></circle>
      <circle cx="113" cy="-113" r="4"></circle>
      <circle cx="160" cy="0" r="4"></circle>
      <circle cx="113" cy="113" r="4"></circle>
      <circle cx="0" cy="160" r="4"></circle>
      <circle cx="-113" cy="113" r="4"></circle>
      <circle cx="-160" cy="0" r="4"></circle>
      <circle cx="-113" cy="-113" r="4"></circle>
    </g>
    
    <g fill="#22c55e" stroke="none" opacity="0.7">
      <circle cx="0" cy="-70" r="2.5"></circle>
      <circle cx="49" cy="-49" r="2.5"></circle>
      <circle cx="70" cy="0" r="2.5"></circle>
      <circle cx="49" cy="49" r="2.5"></circle>
      <circle cx="0" cy="70" r="2.5"></circle>
      <circle cx="-49" cy="49" r="2.5"></circle>
      <circle cx="-70" cy="0" r="2.5"></circle>
      <circle cx="-49" cy="-49" r="2.5"></circle>
    </g>
  </g>

  
  <g font-family="Georgia, &#39;Times New Roman&#39;, serif" fill="#f5f5f0">
    <text x="48" y="600" font-size="68" font-weight="400" letter-spacing="-2">MACEDONIAN</text>
    <text x="48" y="666" font-size="68" font-weight="400" letter-spacing="-2">AI DATA</text>
    <text x="48" y="732" font-size="68" font-weight="700" letter-spacing="-2" fill="#22c55e">2026</text>
  </g>

  
  <text x="48" y="772" font-family="ui-monospace, &#39;SF Mono&#39;, Menlo, monospace" font-size="13" letter-spacing="2" fill="#a7f3c8" opacity="0.85">A STRATEGY FOR DIGITAL SOVEREIGNTY</text>

  
  <line x1="48" y1="790" x2="200" y2="790" stroke="#22c55e" stroke-opacity="0.5"></line>
  <text x="48" y="812" font-family="ui-monospace, &#39;SF Mono&#39;, Menlo, monospace" font-size="11" letter-spacing="2.5" fill="#ffffff" opacity="0.7">SUAD SEFERI</text>
  <text x="552" y="812" text-anchor="end" font-family="ui-monospace, &#39;SF Mono&#39;, Menlo, monospace" font-size="11" letter-spacing="2.5" fill="#ffffff" opacity="0.45">WHITE PAPER</text>
</svg>