<svg xmlns="http://www.w3.org/2000/svg" viewBox="0 0 600 840" preserveAspectRatio="xMidYMid slice">
  <defs>
    <linearGradient id="gw" x1="0" y1="0" x2="0" y2="1">
      <stop offset="0%" stop-color="#120a1e"></stop>
      <stop offset="55%" stop-color="#1a0f2b"></stop>
      <stop offset="100%" stop-color="#0a0614"></stop>
    </linearGradient>
    <radialGradient id="glow2" cx="50%" cy="40%" r="60%">
      <stop offset="0%" stop-color="#a78bfa" stop-opacity="0.30"></stop>
      <stop offset="60%" stop-color="#8b5cf6" stop-opacity="0.06"></stop>
      <stop offset="100%" stop-color="#8b5cf6" stop-opacity="0"></stop>
    </radialGradient>
    <pattern id="grid2" width="30" height="30" patternUnits="userSpaceOnUse">
      <path d="M30 0H0V30" fill="none" stroke="#a78bfa" stroke-opacity="0.08" stroke-width="0.6"></path>
    </pattern>
  </defs>

  
  <rect width="600" height="840" fill="url(#gw)"></rect>
  <rect width="600" height="840" fill="url(#grid2)"></rect>
  <rect width="600" height="840" fill="url(#glow2)"></rect>

  
  <g font-family="ui-monospace, &#39;SF Mono&#39;, Menlo, monospace" font-size="11" letter-spacing="3" fill="#a78bfa">
    <text x="48" y="68" opacity="0.9">AI NOW · RESEARCH</text>
    <text x="552" y="68" text-anchor="end" opacity="0.7">N°02 / 2026</text>
  </g>
  <line x1="48" y1="84" x2="552" y2="84" stroke="#a78bfa" stroke-opacity="0.35"></line>

  
  <g transform="translate(300 340)">
    
    <line x1="-180" y1="110" x2="180" y2="110" stroke="#a78bfa" stroke-opacity="0.35"></line>
    
    <g fill="#a78bfa">
      <rect x="-170" y="70" width="28" height="40" opacity="0.35"></rect>
      <rect x="-130" y="50" width="28" height="60" opacity="0.45"></rect>
      <rect x="-90" y="20" width="28" height="90" opacity="0.55"></rect>
      <rect x="-50" y="-10" width="28" height="120" opacity="0.65"></rect>
      <rect x="-10" y="-40" width="28" height="150" opacity="0.78"></rect>
      <rect x="30" y="-80" width="28" height="190" opacity="0.88"></rect>
      <rect x="70" y="-120" width="28" height="230" opacity="1"></rect>
      <rect x="110" y="-90" width="28" height="200" opacity="0.85"></rect>
      <rect x="150" y="-60" width="28" height="170" opacity="0.70"></rect>
    </g>
    
    <path d="M-156 80 L 84 -110" stroke="#fff" stroke-opacity="0.9" stroke-width="2" fill="none"></path>
    <polygon points="84,-110 72,-108 82,-98" fill="#fff" opacity="0.9"></polygon>
    
    <g fill="#ffffff" opacity="0.55">
      <circle cx="-140" cy="-130" r="3"></circle>
      <circle cx="-90" cy="-150" r="3"></circle>
      <circle cx="-40" cy="-160" r="3"></circle>
      <circle cx="20" cy="-170" r="3"></circle>
      <circle cx="70" cy="-165" r="3"></circle>
      <circle cx="120" cy="-150" r="3"></circle>
    </g>
    <g stroke="#ffffff" stroke-opacity="0.2" fill="none">
      <path d="M-140 -130 L -90 -150 L -40 -160 L 20 -170 L 70 -165 L 120 -150"></path>
    </g>
  </g>

  
  <g font-family="Georgia, &#39;Times New Roman&#39;, serif" fill="#f5f5f0">
    <text x="48" y="600" font-size="64" font-weight="400" letter-spacing="-2">WESTERN</text>
    <text x="48" y="664" font-size="64" font-weight="400" letter-spacing="-2">BALKANS</text>
    <text x="48" y="728" font-size="64" font-weight="700" letter-spacing="-2" fill="#a78bfa">2026</text>
  </g>

  
  <text x="48" y="768" font-family="ui-monospace, &#39;SF Mono&#39;, Menlo, monospace" font-size="13" letter-spacing="2" fill="#ddd0ff" opacity="0.85">FINTECH &amp; AI INVESTMENT CASE</text>

  
  <line x1="48" y1="790" x2="200" y2="790" stroke="#a78bfa" stroke-opacity="0.5"></line>
  <text x="48" y="812" font-family="ui-monospace, &#39;SF Mono&#39;, Menlo, monospace" font-size="11" letter-spacing="2.5" fill="#ffffff" opacity="0.7">SUAD SEFERI</text>
  <text x="552" y="812" text-anchor="end" font-family="ui-monospace, &#39;SF Mono&#39;, Menlo, monospace" font-size="11" letter-spacing="2.5" fill="#ffffff" opacity="0.45">WHITE PAPER</text>
</svg>